<svg xmlns="http://www.w3.org/2000/svg" width="112" height="112" viewBox="0 0 112 112">
  <g id="ac-icon" transform="translate(-696 -1836)">
    <circle id="Ellipse_6" data-name="Ellipse 6" cx="56" cy="56" r="56" transform="translate(696 1836)" fill="#fffefa"/>
    <g id="A_C_icon" data-name="A/C icon" transform="translate(728.249 1861.498)">
      <g id="Group_53" data-name="Group 53" transform="translate(0 0)">
        <path id="Path_2047" data-name="Path 2047" d="M54.68,247.62a2.3,2.3,0,1,0,2.3,2.3A2.3,2.3,0,0,0,54.68,247.62Zm0,3.065a.766.766,0,1,1,.766-.766A.766.766,0,0,1,54.68,250.685Z" transform="translate(-43.953 -207.779)" fill="#707070" stroke="#707070" stroke-width="0.9"/>
        <path id="Path_2048" data-name="Path 2048" d="M45.2,110.835a2.061,2.061,0,0,0,2.3-2.3v-6.129a4.989,4.989,0,0,0-2.722-4.516l-.156-.057A7.994,7.994,0,0,1,40.5,95.125l-2.276-4.553a5.206,5.206,0,0,0-4.516-2.722H24.092a13.265,13.265,0,0,0,1.958-6.9H24.517a11.727,11.727,0,0,1-6.129,10.281v-2.62H16.856v4.6h4.6V91.681h-.887A13.077,13.077,0,0,0,23,89.383H33.711a3.665,3.665,0,0,1,3.145,1.875l2.3,4.6.048.082A9.325,9.325,0,0,0,44.161,99.3a3.471,3.471,0,0,1,1.81,3.112v6.129c0,.658-.108.766-.766.766H42.078a5.356,5.356,0,0,0-10.6,0H16.028a5.356,5.356,0,0,0-10.6,0H3.065a1.573,1.573,0,0,1-1.532-1.532v-5.363a2.983,2.983,0,0,1,2.424-3.075l4.622-.771a4.824,4.824,0,0,0,2.761-1.824l3.218-4.29H13.025A11.727,11.727,0,0,1,2.744,86.318h2.62V84.786H.766v4.6H2.3v-.892A13.333,13.333,0,0,0,11.555,93.9l-1.408,1.879A3.3,3.3,0,0,1,8.3,97.055l-4.628.771A4.56,4.56,0,0,0,0,102.408v5.363a3.106,3.106,0,0,0,3.065,3.065h2.36a5.367,5.367,0,0,0,5.3,4.6H25.284V113.9H14.472a5.351,5.351,0,0,0,1.556-3.065H31.474A5.352,5.352,0,0,0,33.03,113.9h-3.15v1.532H47.5V113.9H40.522a5.347,5.347,0,0,0,1.556-3.065ZM10.726,113.9a3.831,3.831,0,1,1,3.831-3.831A3.835,3.835,0,0,1,10.726,113.9Zm26.05,0a3.831,3.831,0,1,1,3.831-3.831A3.835,3.835,0,0,1,36.776,113.9Z" transform="translate(0 -67.93)" fill="#707070" stroke="#707070" stroke-width="0.9"/>
        <path id="Path_2049" data-name="Path 2049" d="M216.584,247.62a2.3,2.3,0,1,0,2.3,2.3A2.3,2.3,0,0,0,216.584,247.62Zm0,3.065a.766.766,0,1,1,.766-.766A.766.766,0,0,1,216.584,250.685Z" transform="translate(-179.808 -207.779)" fill="#707070" stroke="#707070" stroke-width="0.9"/>
        <rect id="Rectangle_379" data-name="Rectangle 379" width="1.532" height="1.532" transform="translate(26.816 45.97)" fill="#707070" stroke="#707070" stroke-width="0.9"/>
        <rect id="Rectangle_380" data-name="Rectangle 380" width="1.532" height="1.532" transform="translate(3.831 45.97)" fill="#707070" stroke="#707070" stroke-width="0.9"/>
        <rect id="Rectangle_381" data-name="Rectangle 381" width="1.532" height="1.532" transform="translate(0.766 45.97)" fill="#707070" stroke="#707070" stroke-width="0.9"/>
        <path id="Path_2050" data-name="Path 2050" d="M131.907,171.263V170.5a3.835,3.835,0,0,0-3.831-3.831h-9.96a3.835,3.835,0,0,0-3.831,3.831h1.532a2.3,2.3,0,0,1,2.3-2.3h9.96a2.3,2.3,0,0,1,2.3,2.3v.766a2.3,2.3,0,0,1-2.3,2.3h-7.345l1.757-1.757-1.083-1.083-3.606,3.606,3.606,3.606,1.083-1.083-1.757-1.757h7.345A3.835,3.835,0,0,0,131.907,171.263Z" transform="translate(-95.897 -139.85)" fill="#707070" stroke="#707070" stroke-width="0.9"/>
        <path id="Path_2051" data-name="Path 2051" d="M7.662,6.74V9.36H9.194v-4.6H4.6V6.3h.887A13.318,13.318,0,0,0,0,17.022H1.532A11.728,11.728,0,0,1,7.662,6.74Z" transform="translate(0 -3.997)" fill="#707070" stroke="#707070" stroke-width="0.9"/>
        <path id="Path_2052" data-name="Path 2052" d="M91.233,7.663h-2.62V9.2h4.6V4.6H91.678v.887A13.318,13.318,0,0,0,80.952,0V1.533A11.727,11.727,0,0,1,91.233,7.663Z" transform="translate(-67.927 -0.001)" fill="#707070" stroke="#707070" stroke-width="0.9"/>
        <path id="Path_2053" data-name="Path 2053" d="M42.271,36.4v.821l-1.126-.7-.812,1.3,1.02.637-.856.286.484,1.453,2.056-.685L45.423,41l-2.385,1.491L40.981,41.8,40.5,43.254l.856.286-1.02.637.812,1.3,1.126-.7v.821H43.8V43.814l2.3-1.437v1.427l-2.145,2.86,1.226.919.919-1.227v2.3h1.532v-2.3l.92,1.227,1.226-.919-2.145-2.86V42.378l2.3,1.437v1.778h1.532v-.821l1.126.7.812-1.3-1.02-.637.856-.286L52.756,41.8l-2.056.685L48.314,41,50.7,39.5l2.056.685.484-1.453-.856-.286,1.02-.637-.812-1.3-1.126.7V36.4H49.933v1.778l-2.3,1.437V38.186l2.145-2.86-1.226-.919-.92,1.227v-2.3H46.1v2.3l-.919-1.227-1.226.919,2.145,2.86v1.427l-2.3-1.437V36.4Z" transform="translate(-33.844 -27.971)" fill="#707070" stroke="#707070" stroke-width="0.1"/>
      </g>
    </g>
  </g>
</svg>
