<svg xmlns="http://www.w3.org/2000/svg" width="112" height="112" viewBox="0 0 112 112">
  <g id="Group_375" data-name="Group 375" transform="translate(-696 -1480)">
    <circle id="Ellipse_3" data-name="Ellipse 3" cx="56" cy="56" r="56" transform="translate(696 1480)" fill="#fffefa"/>
    <g id="Disc_Brake_icon" data-name="Disc Brake icon" transform="translate(720.802 1504.801)">
      <g id="Group_43" data-name="Group 43" transform="translate(0)">
        <path id="Path_2035" data-name="Path 2035" d="M258.6,218.541a2.6,2.6,0,1,0-2.6-2.6A2.6,2.6,0,0,0,258.6,218.541Z" transform="translate(-224.806 -187.341)" fill="#707070"/>
        <path id="Path_2036" data-name="Path 2036" d="M258.6,298.674a2.6,2.6,0,1,0,2.6,2.6A2.6,2.6,0,0,0,258.6,298.674Z" transform="translate(-224.806 -262.275)" fill="#707070"/>
        <path id="Path_2037" data-name="Path 2037" d="M164.936,149.34a15.6,15.6,0,1,0,15.6,15.6A15.6,15.6,0,0,0,164.936,149.34Zm0,26a10.4,10.4,0,1,1,10.4-10.4A10.4,10.4,0,0,1,164.936,175.339Z" transform="translate(-131.139 -131.14)" fill="#707070"/>
        <path id="Path_2038" data-name="Path 2038" d="M37.431,5.4V4.1A4.114,4.114,0,0,0,33.1,0,34.84,34.84,0,0,0,.015,33.093a4.109,4.109,0,0,0,4.1,4.328h1.3A28.613,28.613,0,1,0,37.431,5.4Zm-5.2-.13V10.5q-.952.1-1.88.272A24.358,24.358,0,0,0,10.509,32.221H5.284A29.644,29.644,0,0,1,32.23,5.274ZM33.79,57.2A23.421,23.421,0,0,1,10.66,37.423h.862a4.108,4.108,0,0,0,3.532-2.007,4,4,0,0,0,.556-1.812,19.169,19.169,0,0,1,15.33-17.649,19.48,19.48,0,0,1,2.673-.35,4,4,0,0,0,1.678-.48l.026-.015c.047-.026.093-.052.139-.08l.091-.058.069-.044c.039-.026.076-.053.113-.08l.041-.029c.039-.029.076-.058.113-.088l.036-.028c.031-.026.062-.053.092-.079l.051-.044.052-.049a4.116,4.116,0,0,0,1.315-3.015v-.863A23.415,23.415,0,0,1,33.79,57.2Z" transform="translate(-0.009 0.001)" fill="#707070"/>
        <path id="Path_2039" data-name="Path 2039" d="M215.937,256.007a2.6,2.6,0,1,0,2.6,2.6A2.6,2.6,0,0,0,215.937,256.007Z" transform="translate(-187.339 -224.808)" fill="#707070"/>
        <path id="Path_2040" data-name="Path 2040" d="M301.271,256.007a2.6,2.6,0,1,0,2.6,2.6A2.6,2.6,0,0,0,301.271,256.007Z" transform="translate(-262.274 -224.808)" fill="#707070"/>
      </g>
    </g>
  </g>
</svg>
