<svg id="email" xmlns="http://www.w3.org/2000/svg" width="45.755" height="29.003" viewBox="0 0 45.755 29.003">
  <path id="Path_2083" data-name="Path 2083" d="M50.836,19.755a25.611,25.611,0,0,0,.037-5.5c-5.609,3.113-10.986,6.3-16.752,8.959,3.284,2.745,6.632,5.372,9.92,8.081q2.082,1.715,4.12,3.5c.491.43.977.869,1.461,1.309a6.117,6.117,0,0,0,.393-.947c.6-1.9.361-4.181.212-6.3.019-.464.041-.931.063-1.4C50.458,24.89,50.7,22.332,50.836,19.755Z" transform="translate(-5.263 -10.575)" fill="#fff"/>
  <path id="Path_2081" data-name="Path 2081" d="M12.644,17.09a68.611,68.611,0,0,0,10.041,5.467A109.633,109.633,0,0,0,39.125,14.6c1.988-1.121,3.986-2.253,6.011-3.377-2.518-2.141-9.878-1.031-11.971-1.031q-8.993.013-17.993-.008a35.327,35.327,0,0,0-5.234.008H8.124a14.18,14.18,0,0,0-4.234.345,63.032,63.032,0,0,1,5.35,3.991C10.348,15.409,11.466,16.283,12.644,17.09Z" transform="translate(-0.601 -9.904)" fill="#fff"/>
  <path id="Path_2082" data-name="Path 2082" d="M9.647,18.979C6.83,16.935,4.3,14.592,1.308,12.807c-.522,1.407-.239,3.277-.416,4.586a.78.78,0,0,0,.009.138,35.823,35.823,0,0,0-.6,7.108c-.062,2.174-.518,5.3-.159,8.008a14.916,14.916,0,0,0,.239,3.813c5.588-4.407,11.528-8.783,17.517-12.6A57.114,57.114,0,0,1,9.647,18.979Z" transform="translate(0 -10.352)" fill="#fff"/>
  <path id="Path_2084" data-name="Path 2084" d="M26.594,26.188c-1.275.537-2.567,1.056-3.9,1.529a1.076,1.076,0,0,1-1.167-.215c-.206-.1-.413-.194-.618-.29a1.391,1.391,0,0,1-.277.231A209.8,209.8,0,0,0,2.109,40.687a3.809,3.809,0,0,0,2.053.537c3.844.047,7.695.018,11.545-.019,6.656.179,13.324.047,19.978.2,2.572.058,5.378-.113,7.323-1.5C37.8,35.167,32.214,30.982,26.832,26.45A1.387,1.387,0,0,1,26.594,26.188Z" transform="translate(-0.326 -12.416)" fill="#fff"/>
</svg>
