<svg xmlns="http://www.w3.org/2000/svg" width="112" height="112" viewBox="0 0 112 112">
  <g id="Group_374" data-name="Group 374" transform="translate(-138 -1480)">
    <circle id="Ellipse_2" data-name="Ellipse 2" cx="56" cy="56" r="56" transform="translate(138 1480)" fill="#fffefa"/>
    <g id="oil-svgrepo-com" transform="matrix(0.899, 0.438, -0.438, 0.899, 227.638, 1376.557)">
      <g id="Group_42" data-name="Group 42" transform="translate(0 143.361)">
        <g id="Group_41" data-name="Group 41" transform="translate(0 0)">
          <path id="Path_2033" data-name="Path 2033" d="M71.523,152.047a3.208,3.208,0,0,0,4.537-4.537L72.852,144.3a3.208,3.208,0,0,0-4.192-.3l-2.939,2.2-19.184,8.909-2.911-6.626a3.208,3.208,0,0,0-2.937-1.918H12.834a3.2,3.2,0,0,0-2.33,1.008L4.989,143.9a3.208,3.208,0,1,0-3.559,5.339l8.2,5.465v17.532a3.208,3.208,0,0,0,3.208,3.208H52.319a3.208,3.208,0,0,0,2.693-1.465L69.758,151.2l.524-.392ZM50.574,169.028H16.043V152.986H38.594l3.386,7.707a3.208,3.208,0,0,0,4.289,1.619l12.369-5.745Z" transform="translate(0 -143.361)" fill="#707070"/>
          <path id="Path_2034" data-name="Path 2034" d="M453.77,225.282a3.208,3.208,0,0,0-3.208,3.208V231.7a3.208,3.208,0,0,0,6.417,0V228.49A3.208,3.208,0,0,0,453.77,225.282Z" transform="translate(-379.979 -212.449)" fill="#707070"/>
        </g>
      </g>
    </g>
  </g>
</svg>
