<svg id="phone" xmlns="http://www.w3.org/2000/svg" width="43.276" height="34.031" viewBox="0 0 43.276 34.031">
  <path id="Path_2080" data-name="Path 2080" d="M16.7,9.026a29.443,29.443,0,0,0-4.662.626A5.571,5.571,0,0,0,9.188,11a8.964,8.964,0,0,1,.133,1.844v.847H0A12.946,12.946,0,0,1,2.115,7.5,7.141,7.141,0,0,1,6.293,4.879q2.652-.627,3.616-.811A41.031,41.031,0,0,1,14.582,3.5q2.475-.167,7.083-.167c4.515,0,7.69.092,9.508.278A28.752,28.752,0,0,1,36.85,4.8a8.452,8.452,0,0,1,4.369,2.8,12.77,12.77,0,0,1,2.057,6.083H34.1v-.442A16.419,16.419,0,0,1,34.2,11a5.631,5.631,0,0,0-2.948-1.382,29.013,29.013,0,0,0-4.441-.608c-1.575-.1-3.282-.147-5.143-.147Q19.333,8.856,16.7,9.026ZM9.32,14.388v1.587a1,1,0,0,1-1.126,1.143H.933a.876.876,0,0,1-.614-.369A1.171,1.171,0,0,1,0,15.975V14.388ZM3.616,35.11V27.665a5.744,5.744,0,0,1,.318-2.048,7.353,7.353,0,0,1,1.071-1.79l8.063-10.949V10.555h3.48l.162,2.323h9.694V10.555h3.936v2.507l8.327,10.766a6.658,6.658,0,0,1,1.164,1.81,6.637,6.637,0,0,1,.231,2.029v7.445q0,2.25-1.823,2.248H5.273Q3.617,37.36,3.616,35.11ZM27.894,22.8q2.608-1.254,2.61-3.023,0-1.735-2.623-2.968a14.479,14.479,0,0,0-6.215-1.235A14.449,14.449,0,0,0,15.4,16.823q-2.625,1.254-2.626,2.95,0,1.773,2.612,3.023a14.355,14.355,0,0,0,6.279,1.253A14.252,14.252,0,0,0,27.894,22.8Zm15.382-6.82a1.323,1.323,0,0,1-.254.792.7.7,0,0,1-.55.351H35.053A.919.919,0,0,1,34.4,16.8a1.137,1.137,0,0,1-.312-.829V14.387h9.184v1.587Z" transform="translate(0 -3.329)" fill="#f8f9fd"/>
</svg>
