<svg xmlns="http://www.w3.org/2000/svg" width="112" height="112" viewBox="0 0 112 112">
  <g id="Group_376" data-name="Group 376" transform="translate(-1267 -1480)">
    <circle id="Ellipse_4" data-name="Ellipse 4" cx="56" cy="56" r="56" transform="translate(1267 1480)" fill="#fffefa"/>
    <g id="Gear_Shift_icon" data-name="Gear Shift icon" transform="translate(1291.273 1504.801)">
      <g id="Group_46" data-name="Group 46" transform="translate(14.631 16.331)">
        <g id="Group_45" data-name="Group 45">
          <path id="Path_2041" data-name="Path 2041" d="M148.11,131.774V145.1H137.223V131.774h-4.138V145.1H122.2V131.774h-4.138v30.791H122.2V149.239h10.888v13.327h4.138V149.239h15.026V131.774Z" transform="translate(-118.058 -131.774)" fill="#707070"/>
        </g>
      </g>
      <g id="Group_48" data-name="Group 48">
        <g id="Group_47" data-name="Group 47" transform="translate(0 0)">
          <path id="Path_2042" data-name="Path 2042" d="M54.161,9.292A31.727,31.727,0,0,0,9.292,54.161,31.727,31.727,0,0,0,54.161,9.292ZM31.727,59.315A27.588,27.588,0,1,1,59.315,31.727,27.62,27.62,0,0,1,31.727,59.315Z" transform="translate(0 0)" fill="#707070"/>
        </g>
      </g>
      <g id="Group_50" data-name="Group 50" transform="translate(43.561 38.447)">
        <g id="Group_49" data-name="Group 49">
          <path id="Path_2043" data-name="Path 2043" d="M356.733,315.311a2.812,2.812,0,0,0-1.551-5.082h-3.69v8.036H353.7V315.8h.826l1.528,2.467h2.49Zm-1.641-1.437H353.7v-1.72h1.335c.272,0,.611.306.611.86S355.364,313.873,355.092,313.873Z" transform="translate(-351.493 -310.229)" fill="#707070"/>
        </g>
      </g>
    </g>
  </g>
</svg>
