<svg xmlns="http://www.w3.org/2000/svg" width="112" height="112" viewBox="0 0 112 112">
  <g id="Group_377" data-name="Group 377" transform="translate(-138 -1836)">
    <circle id="Ellipse_5" data-name="Ellipse 5" cx="56" cy="56" r="56" transform="translate(138 1836)" fill="#fffefa"/>
    <path id="Path_2044" data-name="Path 2044" d="M66.7,512h0Z" transform="translate(107.207 1406.898)" fill="#707070"/>
    <path id="Path_2045" data-name="Path 2045" d="M53.837,4.906a1.709,1.709,0,0,0-.981-.874L41.286.089A1.68,1.68,0,0,0,39.15,1.2L37.873,5.217a1.805,1.805,0,0,0,.1,1.336,1.709,1.709,0,0,0,.981.874l1.076.367-1.52,4.787h-.445a1.722,1.722,0,0,0-1.692,1.751,1.75,1.75,0,0,0,1.065,1.625L36.36,19.343H35.6a1.757,1.757,0,0,0-.337,3.466L34.534,25.1l-1.089-.371a1.681,1.681,0,0,0-2.136,1.115l-1.277,4.013a1.8,1.8,0,0,0,.072,1.28h-8.52v-7.4a6.292,6.292,0,0,0-6.175-6.39H8.714a6.292,6.292,0,0,0-6.175,6.39V47.373a6.337,6.337,0,0,0,5.907,6.4c.828-.006,2.8-.011,6.962-.011a6.292,6.292,0,0,0,6.175-6.39v-7.4h9.31a6.671,6.671,0,0,0,5.242,2.58,6.873,6.873,0,0,0,6.745-6.493,1.63,1.63,0,0,0,.328.035,1.7,1.7,0,0,0,1.607-1.2l1.277-4.013a1.764,1.764,0,0,0-1.078-2.21l-1.022-.348,1.738-5.474h.453a1.722,1.722,0,0,0,1.692-1.751A1.75,1.75,0,0,0,46.8,19.465l1.074-3.383h.491a1.722,1.722,0,0,0,1.692-1.751,1.748,1.748,0,0,0-1.107-1.641l.531-1.673,1.035.353a1.641,1.641,0,0,0,1.291-.1,1.735,1.735,0,0,0,.845-1.015l1.277-4.013A1.807,1.807,0,0,0,53.837,4.906Zm-46.47,45a2.906,2.906,0,0,1-1.445-2.529V23.73A2.907,2.907,0,0,1,7.367,21.2Zm5.833.359H10.751V20.842H13.2Zm5-17.379V47.373a2.9,2.9,0,0,1-1.616,2.619V21.112A2.9,2.9,0,0,1,18.2,23.73ZM29.428,36.47H21.584V34.633h7.844A7.318,7.318,0,0,0,29.428,36.47ZM33.993,28.6l.488.166c-.111.029-.406.116-.6.187ZM36.135,39.05a3.435,3.435,0,0,1-3.37-3.229c0-.019,0-.038,0-.056a3.38,3.38,0,1,1,3.375,3.285Zm4.12-9.056a6.648,6.648,0,0,0-3.483-1.413c.419-.408.313-.3,2.039-5.738h3.358L40.25,28.888A1.8,1.8,0,0,0,40.255,29.995Zm1.876,2.137-.112-.038a7.025,7.025,0,0,0-.651-.984l.982.335Zm1.15-12.789H39.922l1.035-3.261h3.358ZM49.972,7.5l-1.037-.353a1.64,1.64,0,0,0-1.292.1A1.735,1.735,0,0,0,46.8,8.26l-1.372,4.321H42.068l1.7-5.357A1.764,1.764,0,0,0,42.69,5.015l-1.074-.366.219-.687L50.19,6.809Z" transform="translate(165.721 1865.102)" fill="#707070"/>
    <path id="Path_2046" data-name="Path 2046" d="M56.6,511.768c-.179,0-.355-.009-.527-.022C54.861,511.755,56.491,511.767,56.6,511.768Z" transform="translate(117.303 1407.129)" fill="#707070"/>
  </g>
</svg>
