<svg xmlns="http://www.w3.org/2000/svg" width="29.685" height="29.914" viewBox="0 0 29.685 29.914">
  <path id="whatsapp-svgrepo-com" d="M18.953,16.394a8.7,8.7,0,0,1,1.915.869l-.038-.022a8.317,8.317,0,0,1,1.741,1.034l-.019-.014a.812.812,0,0,1,.04.252c0,.014,0,.026,0,.04h0a4.04,4.04,0,0,1-.336,1.488l.01-.026a2.591,2.591,0,0,1-1.349,1.253l-.017.006a4.5,4.5,0,0,1-1.956.51h-.007a10.352,10.352,0,0,1-3.708-1.219l.053.027a11.046,11.046,0,0,1-3.271-2.27h0a25.409,25.409,0,0,1-2.79-3.468l-.058-.092a6.676,6.676,0,0,1-1.365-3.717v-.17a4.247,4.247,0,0,1,1.42-3.037l0,0a1.452,1.452,0,0,1,1-.423h0a3.076,3.076,0,0,1,.362.031l-.016,0a2.883,2.883,0,0,0,.362.029h0a.744.744,0,0,1,.077,0,.8.8,0,0,1,.437.13h0a1.389,1.389,0,0,1,.3.519l0,.01q.154.385.635,1.693a10.224,10.224,0,0,1,.463,1.364l.017.078a1.953,1.953,0,0,1-.661,1.1l0,0q-.664.7-.664.894a.541.541,0,0,0,.1.29h0a8.724,8.724,0,0,0,1.956,2.63l.006.006a12.275,12.275,0,0,0,2.832,1.911l.073.032a.845.845,0,0,0,.421.135h0q.289,0,1.04-.933t1-.933Zm-3.906,10.2h.027a11.713,11.713,0,0,0,4.733-.992l-.076.03A11.972,11.972,0,0,0,26.14,19.27l.03-.078a11.7,11.7,0,0,0,.962-4.685,11.854,11.854,0,0,0-.992-4.762l.03.077A11.972,11.972,0,0,0,19.81,3.414l-.078-.03a11.7,11.7,0,0,0-4.685-.962,11.854,11.854,0,0,0-4.762.992l.077-.03A11.972,11.972,0,0,0,3.954,9.744l-.03.078a11.769,11.769,0,0,0-.962,4.7,11.914,11.914,0,0,0,2.332,7.1l-.024-.032-1.52,4.484L8.407,24.59a11.727,11.727,0,0,0,6.584,2h.058ZM15.047,0h.041a14.036,14.036,0,0,1,5.678,1.19l-.091-.036a14.422,14.422,0,0,1,7.69,7.631l.036.094a14.062,14.062,0,0,1,1.154,5.628,14.242,14.242,0,0,1-1.19,5.72l.036-.092a14.422,14.422,0,0,1-7.631,7.69l-.094.036a13.873,13.873,0,0,1-5.589,1.154h-.105a14.22,14.22,0,0,1-7.029-1.847l.071.037L0,29.786l2.617-7.793A14.447,14.447,0,0,1,1.729,8.787l-.036.093A14.422,14.422,0,0,1,9.324,1.19l.094-.036A13.873,13.873,0,0,1,15.007,0h.038Z" transform="translate(0.08 0.05)" fill="#707070" stroke="#4ba6eb" stroke-width="0.1"/>
</svg>
